<?xml version="1.0" standalone="no"?>
<!DOCTYPE svg PUBLIC "-//W3C//DTD SVG 20010904//EN"
 "http://www.w3.org/TR/2001/REC-SVG-20010904/DTD/svg10.dtd">
<svg version="1.0" xmlns="http://www.w3.org/2000/svg"
 width="500.000000pt" height="500.000000pt" viewBox="0 0 500.000000 500.000000"
 preserveAspectRatio="xMidYMid meet">

<g transform="translate(0.000000,500.000000) scale(0.100000,-0.100000)"
fill="#000000" stroke="none">
<path d="M2325 4040 c-116 -9 -233 -29 -241 -42 -13 -20 9 -21 108 -2 137 25
402 25 538 0 130 -24 316 -87 428 -146 233 -123 398 -278 580 -546 10 -16 11
-15 1 6 -32 68 -144 215 -229 300 -219 218 -498 361 -800 410 -139 22 -265 29
-385 20z"/>
<path d="M2348 3943 c-16 -2 -28 -10 -28 -16 0 -9 43 -12 153 -13 381 -4 717
-144 981 -408 121 -121 200 -229 272 -374 30 -59 54 -102 54 -96 0 6 -27 64
-60 130 -202 403 -595 689 -1045 759 -99 15 -284 26 -327 18z"/>
<path d="M3435 3920 c-8 -14 -15 -7 96 -93 289 -222 479 -515 561 -867 39
-170 36 -472 -8 -644 -8 -32 -13 -60 -11 -63 10 -9 47 176 58 290 45 443 -143
919 -484 1227 -131 118 -201 167 -212 150z"/>
<path d="M3582 3698 c-9 -9 5 -29 59 -85 132 -139 243 -314 308 -483 90 -232
113 -532 61 -780 -10 -52 -18 -96 -16 -98 5 -4 34 121 46 198 15 97 12 342 -5
439 -42 238 -146 470 -300 666 -87 111 -138 158 -153 143z"/>
<path d="M2300 3401 c0 -16 8 -38 18 -49 23 -28 161 -125 237 -167 75 -42 271
-125 293 -125 10 1 -22 15 -69 34 -153 58 -252 120 -368 233 -58 57 -107 103
-108 103 -2 0 -3 -13 -3 -29z"/>
<path d="M2410 3407 c0 -56 277 -270 375 -291 17 -3 -1 9 -40 27 -119 57 -242
163 -297 255 -23 38 -38 41 -38 9z"/>
<path d="M2510 3413 c0 -27 50 -101 101 -150 49 -46 116 -93 133 -93 6 0 -5 9
-24 21 -56 34 -109 89 -161 168 -30 44 -49 66 -49 54z"/>
<path d="M2218 3177 c-105 -407 -237 -862 -283 -971 -5 -11 -4 -17 1 -14 5 2
40 19 77 37 78 38 116 42 308 28 l117 -9 22 73 c27 89 85 207 154 314 53 81
239 319 268 343 14 11 18 4 33 -60 22 -91 74 -237 120 -336 19 -41 35 -78 35
-83 0 -4 -22 -12 -50 -18 -125 -27 -437 -184 -531 -267 -68 -60 -100 -67 -293
-58 -151 6 -165 5 -209 -14 -26 -12 -47 -24 -47 -27 0 -3 10 -25 21 -48 78
-154 203 -261 363 -314 70 -23 99 -26 216 -27 74 -1 156 3 181 7 44 7 48 11
67 55 10 26 123 295 250 597 126 303 262 617 301 698 39 81 65 144 58 140 -7
-4 -37 -26 -67 -49 -181 -137 -379 -173 -585 -107 -117 37 -286 137 -414 243
-33 27 -61 50 -63 50 -2 0 -24 -82 -50 -183z m662 -184 c0 -5 -22 -24 -47 -43
-26 -19 -115 -88 -197 -153 -82 -64 -153 -114 -157 -110 -6 8 -29 170 -29 211
0 20 5 22 64 22 80 0 189 21 281 53 83 29 85 29 85 20z"/>
<path d="M1001 2794 c0 -11 3 -14 6 -6 3 7 2 16 -1 19 -3 4 -6 -2 -5 -13z"/>
<path d="M991 2754 c0 -11 3 -14 6 -6 3 7 2 16 -1 19 -3 4 -6 -2 -5 -13z"/>
<path d="M981 2714 c0 -11 3 -14 6 -6 3 7 2 16 -1 19 -3 4 -6 -2 -5 -13z"/>
<path d="M960 2608 c-16 -112 -14 -334 4 -438 53 -298 193 -568 406 -780 117
-118 214 -190 231 -173 8 8 -11 27 -63 66 -105 79 -274 257 -345 364 -156 233
-233 489 -233 770 0 68 5 156 11 194 6 39 9 73 6 75 -2 3 -10 -32 -17 -78z"/>
<path d="M2704 2670 c-46 -18 -204 -317 -204 -386 0 -7 39 11 93 42 117 70
277 148 362 175 75 25 75 26 -18 95 -76 56 -187 92 -233 74z"/>
<path d="M891 2634 c0 -11 3 -14 6 -6 3 7 2 16 -1 19 -3 4 -6 -2 -5 -13z"/>
<path d="M882 2575 c0 -16 2 -22 5 -12 2 9 2 23 0 30 -3 6 -5 -1 -5 -18z"/>
<path d="M866 2443 c-27 -401 141 -830 440 -1127 89 -89 215 -183 346 -259 85
-48 108 -56 108 -34 0 6 -37 31 -83 55 -189 99 -407 288 -530 460 -190 266
-288 600 -269 920 2 45 2 82 0 82 -3 0 -8 -44 -12 -97z"/>
<path d="M3972 2203 c-15 -48 -8 -55 8 -8 7 20 10 38 8 41 -3 2 -10 -13 -16
-33z"/>
<path d="M1904 2146 c-10 -8 -19 -20 -19 -28 0 -26 -88 -214 -114 -242 -14
-16 -50 -54 -78 -83 -64 -65 -44 -70 32 -8 61 50 84 51 60 4 -24 -46 0 -34 34
17 16 25 35 70 40 100 6 30 16 79 22 109 6 30 21 75 34 100 25 47 22 55 -11
31z"/>
<path d="M1817 2078 c-13 -18 -44 -71 -67 -117 -52 -99 -115 -168 -196 -210
-41 -22 -50 -29 -29 -25 100 21 194 101 236 199 13 32 38 87 55 122 17 34 29
63 28 63 -2 0 -14 -15 -27 -32z"/>
<path d="M3926 2085 c-9 -26 -7 -32 5 -12 6 10 9 21 6 23 -2 3 -7 -2 -11 -11z"/>
<path d="M3860 1950 c-6 -11 -8 -20 -6 -20 3 0 10 9 16 20 6 11 8 20 6 20 -3
0 -10 -9 -16 -20z"/>
<path d="M1255 1785 c201 -358 580 -620 994 -689 123 -21 369 -21 487 -1 113
20 124 23 118 39 -4 10 -25 8 -102 -7 -133 -28 -408 -29 -536 -4 -284 57 -515
179 -729 386 -76 73 -130 137 -179 211 -80 120 -94 136 -53 65z"/>
<path d="M1311 1585 c54 -79 236 -255 334 -321 402 -273 892 -334 1374 -170
80 27 86 30 77 44 -3 6 -54 -6 -123 -28 -333 -108 -642 -114 -941 -18 -278 89
-498 242 -716 498 l-38 45 33 -50z"/>
</g>
</svg>
